<?xml version="1.0" encoding="utf-8"?>
<!-- Generator: Adobe Illustrator 27.0.0, SVG Export Plug-In . SVG Version: 6.00 Build 0)  -->
<svg version="1.1" id="Layer_1" xmlns="http://www.w3.org/2000/svg" xmlns:xlink="http://www.w3.org/1999/xlink" x="0px" y="0px"
	 viewBox="0 0 59.2 59.2" style="enable-background:new 0 0 59.2 59.2;" xml:space="preserve">
<style type="text/css">
	.st0{fill:none;}
</style>
<g>
	<rect x="46.6" y="52" class="st0" width="3.6" height="1.8"/>
	<rect x="39.4" y="7.2" class="st0" width="1.8" height="1.8"/>
	<rect x="43" y="52" class="st0" width="1.8" height="1.8"/>
	<rect x="26.9" y="10.8" class="st0" width="1.8" height="1.8"/>
	<rect x="48.4" y="55.6" class="st0" width="1.8" height="1.8"/>
	<rect x="46.6" y="35.9" class="st0" width="1.8" height="1.8"/>
	<rect x="52" y="17.9" class="st0" width="1.8" height="1.8"/>
	<polygon class="st0" points="55.6,35.9 53.8,35.9 53.8,37.7 48.4,37.7 48.4,39.5 48.4,39.5 48.4,41.2 48.4,41.2 48.4,43 52,43 
		52,41.2 52,41.2 52,39.5 53.8,39.5 53.8,41.2 55.6,41.2 55.6,39.5 57.4,39.5 57.4,37.7 55.6,37.7 	"/>
	<rect x="32.3" y="50.2" class="st0" width="3.6" height="1.8"/>
	<rect x="44.8" y="34.1" class="st0" width="1.8" height="1.8"/>
	<polygon class="st0" points="55.6,43 53.8,43 53.8,44.8 55.6,44.8 55.6,46.6 57.4,46.6 57.4,44.8 57.4,44.8 57.4,43 57.4,43 
		57.4,41.2 55.6,41.2 	"/>
	<rect x="10.8" y="37.7" class="st0" width="1.8" height="1.8"/>
	<rect x="30.5" y="34.1" class="st0" width="1.8" height="1.8"/>
	<rect x="9" y="41.2" class="st0" width="3.6" height="1.8"/>
	<rect x="5.4" y="41.2" class="st0" width="1.8" height="1.8"/>
	<rect x="1.8" y="17.9" class="st0" width="1.8" height="1.8"/>
	<rect x="25.1" y="3.6" class="st0" width="7.2" height="1.8"/>
	<rect x="32.3" y="5.4" class="st0" width="1.8" height="1.8"/>
	<rect x="30.5" y="41.2" class="st0" width="1.8" height="1.8"/>
	<rect x="39.4" y="12.6" class="st0" width="1.8" height="1.8"/>
	<rect x="26.9" y="41.2" class="st0" width="1.8" height="1.8"/>
	<polygon class="st0" points="26.9,39.5 26.9,39.5 26.9,37.7 25.1,37.7 25.1,39.5 25.1,39.5 25.1,41.2 26.9,41.2 	"/>
	<rect x="37.7" y="10.8" class="st0" width="1.8" height="1.8"/>
	<rect x="30.5" y="23.3" class="st0" width="1.8" height="1.8"/>
	<rect x="34.1" y="25.1" class="st0" width="1.8" height="1.8"/>
	<rect x="26.9" y="19.7" class="st0" width="1.8" height="1.8"/>
	<rect x="30.5" y="26.9" class="st0" width="1.8" height="1.8"/>
	<rect x="28.7" y="21.5" class="st0" width="1.8" height="1.8"/>
	<rect x="35.9" y="26.9" class="st0" width="1.8" height="1.8"/>
	<rect x="39.4" y="26.9" class="st0" width="1.8" height="1.8"/>
	<rect x="34.1" y="28.7" class="st0" width="1.8" height="1.8"/>
	<rect x="37.7" y="5.4" class="st0" width="1.8" height="1.8"/>
	<rect x="46.6" y="28.7" class="st0" width="1.8" height="1.8"/>
	<rect x="37.7" y="25.1" class="st0" width="1.8" height="1.8"/>
	<rect x="21.5" y="25.1" class="st0" width="3.6" height="1.8"/>
	<rect x="9" y="21.5" class="st0" width="1.8" height="1.8"/>
	<rect x="10.8" y="19.7" class="st0" width="1.8" height="1.8"/>
	<rect x="10.8" y="23.3" class="st0" width="1.8" height="1.8"/>
	<rect x="17.9" y="25.1" class="st0" width="1.8" height="1.8"/>
	<rect x="19.7" y="26.9" class="st0" width="1.8" height="1.8"/>
	<rect x="5.4" y="21.5" class="st0" width="1.8" height="1.8"/>
	<polygon class="st0" points="17.9,26.9 14.3,26.9 14.3,28.7 14.3,28.7 14.3,30.5 19.7,30.5 19.7,28.7 17.9,28.7 	"/>
	<rect x="34.1" width="3.6" height="1.8"/>
	<polygon points="12.6,10.8 12.6,10.8 12.6,9 12.6,9 12.6,7.2 12.6,7.2 12.6,5.4 12.6,5.4 12.6,3.6 12.6,3.6 12.6,1.8 10.8,1.8 
		10.8,3.6 10.8,3.6 10.8,5.4 10.8,5.4 10.8,7.2 10.8,7.2 10.8,9 10.8,9 10.8,10.8 1.8,10.8 1.8,9 1.8,9 1.8,7.2 1.8,7.2 1.8,5.4 
		1.8,5.4 1.8,3.6 1.8,3.6 1.8,1.8 0,1.8 0,3.6 0,3.6 0,5.4 0,5.4 0,7.2 0,7.2 0,9 0,9 0,10.8 0,10.8 0,12.6 12.6,12.6 	"/>
	<rect x="46.6" y="14.3" width="9" height="1.8"/>
	<rect x="39.4" width="3.6" height="1.8"/>
	<rect x="3.6" y="14.3" width="9" height="1.8"/>
	<rect x="17.9" width="7.2" height="1.8"/>
	<rect x="32.3" y="16.1" width="10.8" height="1.8"/>
	<rect x="32.3" y="10.8" width="1.8" height="1.8"/>
	<rect x="30.5" y="14.3" width="1.8" height="1.8"/>
	<path d="M34.1,3.6V1.8H23.3v1.8v0v1.8h-1.8v1.8h-1.8V9h-1.8v1.8v0v1.8h1.8v-1.8v0V9h1.8v1.8v0v1.8h1.8v-1.8v0V9v0V7.2v0V5.4h1.8
		v1.8h1.8V9v0v1.8h-1.8v1.8v0v1.8h-1.8v1.8h5.4v-1.8v0v-1.8h1.8v-1.8v0V9h-1.8V7.2h3.6V9h3.6v1.8v0v1.8h1.8v1.8h1.8v1.8h1.8v-1.8H43
		v1.8h1.8v-1.8v0v-1.8v0v-1.8H43v1.8h-1.8v-1.8v0V9h3.6V7.2v0V5.4v0V3.6H43v1.8v0v1.8h-1.8V5.4v0V3.6v0V1.8h-3.6v1.8v0v1.8h-3.6V3.6
		L34.1,3.6z M41.2,14.3h-1.8v-1.8h1.8V14.3z M41.2,9h-1.8V7.2h1.8V9z M37.7,5.4h1.8v1.8h-1.8V5.4z M37.7,10.8h1.8v1.8h-1.8V10.8z
		 M28.7,12.6h-1.8v-1.8h1.8V12.6z M25.1,5.4V3.6h7.2v1.8H25.1z M34.1,7.2h-1.8V5.4h1.8V7.2z"/>
	<polygon points="3.6,5.4 3.6,7.2 3.6,7.2 3.6,9 9,9 9,7.2 9,7.2 9,5.4 9,5.4 9,3.6 3.6,3.6 3.6,5.4 	"/>
	<polygon points="16.1,16.1 19.7,16.1 19.7,14.3 16.1,14.3 16.1,12.6 16.1,12.6 16.1,10.8 16.1,10.8 16.1,9 16.1,9 16.1,7.2 
		16.1,7.2 16.1,5.4 16.1,5.4 16.1,3.6 17.9,3.6 17.9,5.4 19.7,5.4 19.7,3.6 19.7,3.6 19.7,1.8 16.1,1.8 16.1,3.6 14.3,3.6 14.3,5.4 
		14.3,5.4 14.3,7.2 14.3,7.2 14.3,9 14.3,9 14.3,10.8 14.3,10.8 14.3,12.6 14.3,12.6 14.3,14.3 16.1,14.3 	"/>
	<rect width="12.6" height="1.8"/>
	<rect x="28.7" width="1.8" height="1.8"/>
	<rect x="21.5" y="16.1" width="1.8" height="1.8"/>
	<rect y="14.3" width="1.8" height="1.8"/>
	<rect x="46.6" y="46.6" width="1.8" height="1.8"/>
	<rect x="57.4" y="48.4" width="1.8" height="1.8"/>
	<path d="M53.8,50.2h1.8v-1.8h-5.4v1.8h-5.4v-1.8h-3.6v1.8H43V52h-1.8v1.8h-1.8v1.8h-1.8v-1.8v0V52v0v-1.8h1.8v-1.8h-7.2v1.8h-1.8
		v-1.8h-1.8v1.8h1.8V52h-1.8v1.8h-1.8v1.8h-1.8v-1.8h-1.8v1.8v0v1.8h-1.8v-1.8v0v-1.8v0V52h-1.8v1.8v0v1.8h-1.8v1.8v0v1.8h7.2v-1.8
		h1.8v1.8h1.8v-1.8h-1.8v-1.8h3.6v-1.8h1.8v1.8h1.8v-1.8h1.8v1.8v0v1.8h-1.8v1.8h1.8v-1.8h3.6v1.8h1.8v-1.8h-1.8v-1.8h1.8v-1.8H43
		v1.8h1.8v-1.8h1.8v1.8v0v1.8v0v1.8h3.6v-1.8h5.4v1.8h1.8v-1.8h-1.8v-1.8h-5.4v-1.8H52V52h1.8v1.8h5.4V52h-5.4V50.2z M35.9,52h-3.6
		v-1.8h3.6V52z M44.8,53.8H43V52h1.8V53.8z M50.2,57.4h-1.8v-1.8h1.8V57.4z M50.2,53.8h-3.6V52h3.6V53.8z"/>
	<rect x="43" y="57.4" width="1.8" height="1.8"/>
	<path d="M57.4,35.9h-1.8v-1.8v0v-1.8h-1.8v1.8H52v-1.8h-3.6v1.8h-1.8v-1.8H43v1.8h-3.6v-1.8h-3.6v1.8h1.8v1.8h1.8v1.8v0v1.8h1.8
		v-1.8v0v-1.8H43v1.8h1.8v1.8h1.8v1.8v0V43h-5.4v1.8v0v1.8v0v1.8h3.6v-1.8v0v-1.8h5.4v1.8v0v1.8H52v-1.8v0v-1.8h1.8v1.8v0v1.8h3.6
		v-1.8h1.8v-1.8v0V43v0v-1.8h-1.8v-1.8h1.8v-1.8h-1.8V35.9z M44.8,35.9v-1.8h1.8v1.8H44.8z M46.6,35.9h1.8v1.8h-1.8V35.9z M57.4,43
		L57.4,43v1.8v0v1.8h-1.8v-1.8h-1.8V43h1.8v-1.8h1.8V43z M57.4,39.5h-1.8v1.8h-1.8v-1.8H52v1.8v0V43h-3.6v-1.8v0v-1.8v0v-1.8h5.4
		v-1.8h1.8v1.8h1.8V39.5z"/>
	<polygon points="1.8,30.5 3.6,30.5 3.6,32.3 5.4,32.3 5.4,30.5 5.4,30.5 5.4,28.7 1.8,28.7 1.8,30.5 0,30.5 0,32.3 1.8,32.3 	"/>
	<rect x="30.5" y="57.4" width="1.8" height="1.8"/>
	<polygon points="55.6,7.2 55.6,5.4 55.6,5.4 55.6,3.6 50.2,3.6 50.2,5.4 50.2,5.4 50.2,7.2 50.2,7.2 50.2,9 55.6,9 55.6,7.2 	"/>
	<path d="M57.4,17.9h-1.8v-1.8H52v1.8h-1.8v-1.8h-3.6v1.8h-1.8v1.8h1.8v-1.8h3.6v1.8v0v1.8v0v1.8h3.6v-1.8h1.8v1.8v0v1.8v0v1.8H52
		v1.8h-1.8v-1.8h-1.8v-1.8v0v-1.8h-1.8v-1.8H43v1.8h1.8v1.8H43v1.8h-1.8v-1.8h-1.8v-1.8h1.8v-1.8h-1.8v-1.8h-3.6v1.8h3.6v1.8h-5.4
		v-1.8v0v-1.8h-1.8v1.8h-1.8v-1.8h-1.8v-1.8h1.8v-1.8h-1.8v1.8h-1.8v-1.8h-1.8v1.8h1.8v1.8h-1.8v1.8h1.8v1.8h-5.4v1.8h-1.8v-1.8
		h-3.6v1.8h-1.8v-1.8h-1.8v-1.8h1.8v-1.8v0v-1.8h3.6v1.8h1.8v1.8h3.6v-1.8h-3.6v-1.8h-1.8v-1.8h-3.6v1.8H9v1.8H7.2v-1.8H3.6v-1.8H0
		v1.8v0v1.8h1.8v1.8v0v1.8h3.6v1.8H9v1.8h3.6v1.8H9v1.8h3.6v1.8h9v-1.8v0v-1.8h5.4v-1.8v0v-1.8h3.6v1.8h-1.8v1.8v0v1.8v0v1.8h9v-1.8
		v0v-1.8h1.8v1.8v0v1.8H43v-1.8h3.6v1.8h3.6v-1.8H52v1.8h3.6v-1.8H52v-1.8h3.6v-1.8h1.8v-1.8h1.8v-1.8v0v-1.8v0v-1.8h-1.8V17.9
		l1.8,0v-1.8h-1.8V17.9z M53.8,19.7H52v-1.8h1.8V19.7z M3.6,19.7H1.8v-1.8h1.8V19.7z M7.2,23.3H5.4v-1.8h1.8V23.3z M10.8,19.7h1.8
		v1.8h-1.8V19.7z M9,21.5h1.8v1.8H9V21.5z M12.6,25.1h-1.8v-1.8h1.8V25.1z M17.9,25.1h1.8v1.8h-1.8V25.1z M19.7,30.5h-5.4v-1.8v0
		v-1.8h3.6v1.8h1.8V30.5z M21.5,28.7h-1.8v-1.8h1.8V28.7z M25.1,26.9h-3.6v-1.8h3.6V26.9z M26.9,19.7h1.8v1.8h-1.8V19.7z M28.7,23.3
		v-1.8h1.8v1.8H28.7z M32.3,28.7h-1.8v-1.8h1.8V28.7z M32.3,25.1h-1.8v-1.8h1.8V25.1z M34.1,25.1h1.8v1.8h-1.8V25.1z M35.9,30.5
		h-1.8v-1.8h1.8V30.5z M37.7,28.7h-1.8v-1.8h1.8V28.7z M37.7,26.9v-1.8h1.8v1.8H37.7z M41.2,28.7h-1.8v-1.8h1.8V28.7z M48.4,30.5
		h-1.8v-1.8h1.8V30.5z"/>
	<polygon points="57.4,30.5 57.4,30.5 57.4,32.3 59.2,32.3 59.2,30.5 59.2,30.5 59.2,28.7 57.4,28.7 	"/>
	<polygon points="57.4,3.6 57.4,3.6 57.4,5.4 57.4,5.4 57.4,7.2 57.4,7.2 57.4,9 57.4,9 57.4,10.8 48.4,10.8 48.4,9 48.4,9 
		48.4,7.2 48.4,7.2 48.4,5.4 48.4,5.4 48.4,3.6 48.4,3.6 48.4,1.8 46.6,1.8 46.6,3.6 46.6,3.6 46.6,5.4 46.6,5.4 46.6,7.2 46.6,7.2 
		46.6,9 46.6,9 46.6,10.8 46.6,10.8 46.6,12.6 59.2,12.6 59.2,10.8 59.2,10.8 59.2,9 59.2,9 59.2,7.2 59.2,7.2 59.2,5.4 59.2,5.4 
		59.2,3.6 59.2,3.6 59.2,1.8 57.4,1.8 	"/>
	<rect x="46.6" width="12.6" height="1.8"/>
	<rect x="25.1" y="30.5" width="1.8" height="1.8"/>
	<polygon points="19.7,39.5 19.7,39.5 19.7,37.7 17.9,37.7 17.9,39.5 17.9,39.5 17.9,41.2 19.7,41.2 	"/>
	<polygon points="26.9,52 26.9,50.2 25.1,50.2 25.1,48.4 23.3,48.4 23.3,50.2 25.1,50.2 25.1,52 	"/>
	<path d="M23.3,43v1.8h-3.6v1.8h3.6v-1.8h5.4V43h1.8v1.8h1.8v1.8h-5.4v1.8h5.4v-1.8h3.6v1.8h1.8v-1.8v0v-1.8h-5.4V43h7.2v-1.8h-7.2
		v-1.8v0v-1.8v0v-1.8h1.8v1.8v0v1.8h3.6v-1.8h-1.8v-1.8h-1.8v-1.8h-1.8v-1.8h-5.4v1.8h1.8v1.8h1.8v1.8v0v1.8v0v1.8h-1.8v-1.8v0v-1.8
		h-1.8v-1.8h-1.8v1.8h-1.8v-1.8v0v-1.8h1.8v-1.8h-3.6v1.8v0v1.8v0v1.8h1.8v1.8h-1.8v1.8h1.8V43L23.3,43z M30.5,34.1h1.8v1.8h-1.8
		V34.1z M30.5,41.2h1.8V43h-1.8V41.2z M28.7,41.2V43h-1.8v-1.8H28.7z M25.1,39.5L25.1,39.5v-1.8h1.8v1.8v0v1.8h-1.8V39.5z"/>
	<polygon points="17.9,50.2 21.5,50.2 21.5,48.4 14.3,48.4 14.3,50.2 14.3,50.2 14.3,52 14.3,52 14.3,53.8 14.3,53.8 14.3,55.6 
		16.1,55.6 16.1,53.8 16.1,53.8 16.1,52 17.9,52 	"/>
	<path d="M1.8,43L1.8,43v-1.8v0v-1.8v0v-1.8v0v-1.8h1.8v1.8v0v1.8h1.8v1.8H3.6V43h1.8v1.8h1.8V43H9v1.8h5.4v1.8h1.8v-1.8h1.8V43
		h-1.8v1.8h-1.8V43v0v-1.8h1.8v-1.8h-1.8v-1.8h1.8v-1.8v0v-1.8h1.8v1.8h1.8v-1.8v0v-1.8h-3.6v1.8h-1.8v1.8v0v1.8h-1.8v-1.8h-1.8
		v-1.8h1.8v-1.8H9v1.8H7.2v-1.8H1.8v1.8v0v1.8H0v1.8v0v1.8v0v1.8v0V43v0v1.8h1.8V43z M10.8,37.7h1.8v1.8h-1.8V37.7z M9,41.2h3.6V43
		H9V41.2z M7.2,43H5.4v-1.8h1.8V43z"/>
	<rect y="46.6" width="12.6" height="1.8"/>
	<polygon points="10.8,50.2 10.8,50.2 10.8,52 10.8,52 10.8,53.8 10.8,53.8 10.8,55.6 10.8,55.6 10.8,57.4 1.8,57.4 1.8,55.6 
		1.8,55.6 1.8,53.8 1.8,53.8 1.8,52 1.8,52 1.8,50.2 1.8,50.2 1.8,48.4 0,48.4 0,50.2 0,50.2 0,52 0,52 0,53.8 0,53.8 0,55.6 
		0,55.6 0,57.4 0,57.4 0,59.2 12.6,59.2 12.6,57.4 12.6,57.4 12.6,55.6 12.6,55.6 12.6,53.8 12.6,53.8 12.6,52 12.6,52 12.6,50.2 
		12.6,50.2 12.6,48.4 10.8,48.4 	"/>
	<rect x="14.3" y="57.4" width="1.8" height="1.8"/>
	<polygon points="9,53.8 9,52 9,52 9,50.2 3.6,50.2 3.6,52 3.6,52 3.6,53.8 3.6,53.8 3.6,55.6 9,55.6 9,53.8 	"/>
</g>
</svg>
