<?xml version="1.0" encoding="UTF-8"?><svg id="Layer_2" xmlns="http://www.w3.org/2000/svg" viewBox="0 0 675.95 194.26"><defs><style>.cls-1{fill:#fff;}</style></defs><g id="Layer_1-2"><g><path class="cls-1" d="M213.34,26.86c-10.14,17.8-37.68,62.36-75.38,92.42-20.12,15.98-51.39,31.68-86.47,15.57C25.53,122.89,10.16,101.61,5.88,71.63c-.9-6.36-1.17-12.43-1.12-17.91H0c-.04,5.61,.26,11.83,1.19,18.39,4.49,31.34,21.21,54.52,48.4,67.03,11.15,5.17,21.89,7.27,32.09,7.27,23.86,0,44.53-11.62,59.35-23.38,40.01-31.94,68.79-79.92,77.88-96.16h-5.55Z"/><path class="cls-1" d="M333.5,4.18l-2.27-4.18L192.59,75.45l2.27,4.18,13.53-7.36c5.31-2.89,11.95-1.02,14.98,4.21l68.18,117.78,4.12-2.38-72.46-125.16c-.6-1.04-.23-2.38,.83-2.96L333.5,4.18Z"/><path id="ratpath" class="cls-1" d="M421.78,143.1V66.06c0-2.47-3.22-3.43-4.57-1.36,0,0-14.62,22.2-16.2,24.88-1.58,2.68-5.45,7.26-6.73,8.55-12.5,12.66-26.98,19.04-43.14,19.04h-.07c-22.77,0-44.73-12.98-59.14-23.86-9.92-7.48-19.64-17.28-25.36-23.36-1.68-1.79-.09-4.66,2.32-4.2,8.09,1.54,21.25,3.88,31.75,5.06,29.5,3.26,34.4-.75,35.15-2.11,.68-1.09-.27-3.26-2.52-5.91-12.3-14.41-31.81-17.88-58.12-10.33-12.97,3.75-24.51,9.44-31.05,12.97-2.05,1.11-2.75,3.67-1.57,5.67l27.32,46.69-4.08,2.38-29.69-50.8c-1.15-1.97-.49-4.49,1.49-5.62,6.48-3.72,20.96-11.48,36.22-15.91,27.87-8.09,49.69-4.01,63.15,11.76,3.81,4.49,4.83,8.29,2.99,11.42-2.11,3.53-8.5,7.89-39.77,4.42-5.57-.62-11.06-1.4-15.92-2.16-2.95-.46-4.71,3.19-2.5,5.2,14.97,13.63,41.93,33.94,69.47,33.94h0c15.4,0,29.22-6.42,41.13-19.09,1.41-1.5,2.67-3.2,3.79-4.92l24.67-37.92c1.71-2.63,5.79-1.42,5.79,1.72V126.49c0,1.91,2.67,2.36,3.29,.55l21.99-63.97,4.49,1.56-27.42,79.67c-1.36,3.94-7.18,2.97-7.18-1.2Z"/><path id="tvzpath" class="cls-1" d="M487.52,142.13c-6.41,0-8.77-1.05-10.05-2.22-.98-.9-1.45-2.26-1.29-3.58,.32-2.73,2.89-7.15,19.36-16.7,9.45-5.51,22.57-12.17,38.88-19.78,11.13-5.18,22.31-10.15,31.73-14.25,3.61-1.57,2.62-6.93-1.31-7.14-14.33-.77-35.1-1.88-48.4-2.6-7.99-.43-15.56,3.45-19.91,10.16l-21.41,33.04c-1.92,2.96-6.48,1.98-7.02-1.5l-3.1-20.07c-.87-5.62-5.5-9.89-11.17-10.3l-101.93-7.33,.34-4.76,103.48,7.43c6.99,.5,12.71,5.78,13.77,12.71l1.42,9.24c.53,3.49,5.1,4.47,7.02,1.51l16.1-24.86c4.35-6.71,11.95-10.59,19.93-10.16l73.26,3.89c3.58,.19,4.47,5.08,1.16,6.47-13.55,5.68-34.72,14.71-51.91,22.73-48.88,22.77-54.79,30.52-55.47,32.43,1.22,.68,6.39,1.84,28.69-1.29,16.59-2.31,38.2-6.39,61.11-10.6,36.44-6.8,77.77-14.48,104.82-16.25l.34,4.76c-26.72,1.77-67.91,9.38-104.21,16.18-22.91,4.28-44.53,8.29-61.18,10.67-11.01,1.63-18.22,2.18-23.05,2.18"/><polygon id="linepath" class="cls-1" points="359.4 50.26 359.73 45.52 404.56 48.4 404.22 53.14 359.4 50.26"/></g></g></svg>