<svg xmlns="http://www.w3.org/2000/svg" viewBox="0 0 82.83 46.43"><defs><style>.cls-1{fill:#d23235;}</style></defs><title>svg-nerval</title><g id="Layer_2" data-name="Layer 2"><g id="Layer_1-2" data-name="Layer 1"><path class="cls-1" d="M2.48,46.41S4.94,47,10,42.22,21.63,30.89,21.63,30.89s5.86-5.54,7.4-6.1a7.48,7.48,0,0,1,2.65-.49s3.26-.25,3.63,3.88V40.62s.06,4.68,4.56,5.48l.87.1H78.9s3.33.13,3.93-4.39V3.46s-.6-6.88-8.32-.78L58.11,18.43a9.5,9.5,0,0,1-6.56,3.33c-4.11.18-4.29-4.25-4.29-4.25V5.31S47.3.37,41.48,0H5.22S0,0,0,5.22V41.48s0,4.69,2.48,4.93Z"/></g></g></svg>